Coordinates
version=1
nRows=9
nColumns=42
inDegrees=yes

Units are S.I. units (second, meters, Newtons, ...)
If the header above contains a line with 'inDegrees', this indicates whether rotational values are in degrees (yes) or radians (no).

endheader
time	pelvis_tilt	pelvis_list	pelvis_rotation	pelvis_tx	pelvis_ty	pelvis_tz	hip_flexion_r	hip_adduction_r	hip_rotation_r	knee_angle_r	knee_angle_r_beta	ankle_angle_r	subtalar_angle_r	mtp_angle_r	hip_flexion_l	hip_adduction_l	hip_rotation_l	knee_angle_l	knee_angle_l_beta	ankle_angle_l	subtalar_angle_l	mtp_angle_l	lumbar_extension	lumbar_bending	lumbar_rotation	sh_tx_r	sh_ty_r	sh_tz_r	sh_plane_elev_r	sh_elev_r	sh_axial_rot_r	elbow_flex_r	pro_sup_r	sh_tx_l	sh_ty_l	sh_tz_l	sh_plane_elev_l	sh_elev_l	sh_axial_rot_l	elbow_flex_l	pro_sup_l
      0.00000000	     -2.69753569	     -0.68908978	      1.81690850	      0.33807621	      0.93242761	      0.01568632	      1.20767281	      0.27604536	      1.64760886	      5.75341396	      0.10041602	      2.05137278	    -11.14971430	     -4.70707448	      2.02298281	     -5.88052809	     -5.64745610	      8.66113470	      0.15116532	      8.29683276	    -12.04283273	     -4.70707448	     -3.23174966	      3.03420766	     -3.18566609	      0.00186629	     -0.01849693	     -0.00523862	      9.43651022	      7.62874626	      1.79842728	     23.60306888	     75.35456497	     -0.00180523	     -0.01818699	     -0.00469153	     18.37876374	      7.01021502	     -2.50238845	     22.74633112	     66.83243953
      0.01694910	     -3.80890639	     -0.69609964	      0.67655181	      0.33889053	      0.92942681	      0.01477210	      2.74748832	      0.18827799	      2.76041763	      6.24464521	      0.10898962	      5.37563368	     -8.49298421	     -6.14213569	      3.37858899	     -5.44018980	     -6.90917459	      8.56214831	      0.14943768	      8.40289557	    -10.98356401	     -6.14213569	     -0.95647328	      3.29000918	     -2.56360326	      0.00297247	     -0.01825624	     -0.00541476	      2.01307863	      6.12708620	      0.70534681	     23.89462551	     78.50818783	      0.00124414	     -0.01803091	     -0.00500993	      3.85116410	      4.01833051	     -1.30739526	     23.64383222	     73.95208516
      0.03389830	     -4.38384337	     -0.22474401	     -0.21416327	      0.33461534	      0.92597048	      0.01176037	      3.50623485	     -0.66378008	      2.38010068	      6.11562852	      0.10673785	      5.91660015	     -7.49052300	     -6.72350346	      3.78097668	     -4.88324485	     -8.61770019	      8.12921835	      0.14188163	      8.46572018	    -10.17934738	     -6.72350346	     -0.13923889	      2.59273457	     -1.82128623	      0.00384122	     -0.01818844	     -0.00517582	     -1.28807116	      5.34945819	      0.41536644	     24.31511963	     77.79057436	      0.00167348	     -0.01810145	     -0.00500141	      1.80183243	      3.58207317	     -1.36879483	     23.84709117	     73.84304701
      0.05084750	     -4.02467571	      0.21647677	     -0.73362921	      0.33452690	      0.93008799	      0.01168672	      3.21373624	     -1.38582280	      2.32067629	      5.88169821	      0.10265500	      6.56987094	     -6.16646898	     -6.75746520	      2.72012793	     -4.22404065	     -9.35051356	      7.01449044	      0.12242595	      8.10327028	    -10.36988249	     -6.75746520	     -0.32339128	      2.01499967	     -1.36522506	      0.00576712	     -0.01836192	     -0.00512267	     -0.92320322	      4.89632817	     -0.53007474	     23.49969235	     77.18601971	      0.00156587	     -0.01820657	     -0.00489134	      1.98277318	      3.63088018	     -2.34622262	     23.49014270	     73.14220327
      0.06779660	     -3.64025305	      0.39435174	     -1.26772530	      0.33471522	      0.93337557	      0.01202102	      2.79104463	     -1.66521189	      2.55506520	      5.62853376	      0.09823645	      6.51066701	     -5.88495928	     -6.71345192	      1.78492958	     -3.90047466	     -9.98622771	      6.14577721	      0.10726405	      7.76327839	    -10.25774645	     -6.71345192	     -0.78920196	      1.76319594	     -0.80093498	      0.00810572	     -0.01846748	     -0.00511141	      0.46157231	      4.86646473	      0.14139336	     23.36790901	     77.58762839	      0.00214265	     -0.01825655	     -0.00482477	      3.29323378	      3.97061686	     -1.93234193	     23.27449010	     73.37168845
      0.08474580	     -3.04419027	      0.47056563	     -1.61147844	      0.33432185	      0.93390502	      0.01161694	      2.08984984	     -1.78326247	      2.69788876	      5.36744032	      0.09367951	      6.57635120	     -5.47101470	     -6.73746754	      0.75104178	     -3.67329863	    -10.50299155	      5.49418205	      0.09589157	      7.61325122	     -9.91508505	     -6.73746754	     -1.46701485	      1.52548933	      0.10900637	      0.00963636	     -0.01858786	     -0.00500060	      0.82250083	      4.52142171	     -1.28989098	     23.20640745	     76.70088149	      0.00549354	     -0.01831137	     -0.00462279	      2.45704337	      3.68689857	     -3.66831262	     24.12017990	     72.05700104
      0.10169490	     -2.69114882	      0.54555913	     -1.78951153	      0.33804136	      0.93387905	      0.00696328	      1.40059521	     -1.96542445	      3.03548641	      4.82306038	      0.08417828	      6.34855372	     -5.56135634	     -6.87147654	     -0.10677521	     -3.37513586	    -10.82004201	      4.77498373	      0.08333919	      7.32378497	     -9.65573645	     -6.87147654	     -1.62268873	      1.37929431	      0.35517950	      0.01155111	     -0.01864352	     -0.00487899	      3.44466434	      4.58398628	     -2.04717560	     22.78717082	     74.78991207	      0.00690654	     -0.01829201	     -0.00456487	      4.31990628	      3.78135803	     -4.29780533	     23.81904205	     70.02893309
      0.11864410	     -2.19849761	      0.54904764	     -1.88751611	      0.33770233	      0.93430337	      0.00644496	      0.50185227	     -2.06010395	      3.28661392	      4.18946537	      0.07311996	      6.04864513	     -5.71685741	     -6.89267749	     -1.03794789	     -3.18391947	    -11.16673722	      4.16073850	      0.07261859	      7.32670616	     -9.11795665	     -6.89267749	     -2.14488999	      1.22927066	      0.67502791	      0.01261843	     -0.01868074	     -0.00496027	      4.44797313	      4.54606446	     -2.33263035	     23.26560080	     74.67986843	      0.00826277	     -0.01825686	     -0.00447110	      3.56799112	      3.58421058	     -4.46420563	     24.33554495	     69.30314945
      0.13559320	     -2.08443806	      0.52327801	     -1.84205789	      0.33765251	      0.93125831	      0.00651305	      0.14473950	     -2.05320202	      3.55252246	      3.78200880	      0.06600851	      5.83514858	     -6.06199400	     -6.94327459	     -1.38919605	     -3.11766630	    -11.28676156	      3.82939459	      0.06683554	      7.24366970	     -8.89965783	     -6.94327459	     -2.10664828	      1.01636184	      0.67359501	      0.01357845	     -0.01871423	     -0.00506470	      6.33198619	      4.57961631	     -2.89579017	     23.17707465	     74.08190585	      0.00911894	     -0.01821160	     -0.00430730	      3.80993678	      3.73090997	     -4.65995072	     24.40726322	     68.26909289
